<svg width="90" height="90" viewBox="0 0 90 90" fill="none" xmlns="http://www.w3.org/2000/svg">
<rect x="0.5" y="0.5" width="89" height="89" stroke="black"/>
<rect x="20.25" y="35.9" width="49.5" height="18.2" stroke="black"/>
<rect x="22.5" y="67.3" width="15" height="8" stroke="black"/>
<circle cx="60" cy="71.3" r="6" stroke="black"/>
<circle cx="79" cy="11" r="2" stroke="black"/>
<path d="M15 13.5H23V20.5H15V13.5Z" stroke="black"/>
<path d="M25.3445 70.9723C25.3374 70.8942 25.3058 70.8335 25.2496 70.7901C25.1942 70.7461 25.1151 70.7241 25.0121 70.7241C24.9439 70.7241 24.8871 70.733 24.8416 70.7507C24.7962 70.7685 24.7621 70.793 24.7393 70.8242C24.7166 70.8548 24.7049 70.8899 24.7042 70.9297C24.7028 70.9624 24.7092 70.9911 24.7234 71.016C24.7383 71.0408 24.7596 71.0629 24.7873 71.082C24.8157 71.1005 24.8498 71.1168 24.8896 71.131C24.9293 71.1452 24.9741 71.1577 25.0238 71.1683L25.2113 71.2109C25.3192 71.2344 25.4144 71.2656 25.4968 71.3047C25.5799 71.3438 25.6495 71.3903 25.7056 71.4442C25.7624 71.4982 25.8054 71.5604 25.8345 71.6307C25.8636 71.701 25.8786 71.7798 25.8793 71.8672C25.8786 72.005 25.8438 72.1232 25.7749 72.2219C25.706 72.3207 25.6069 72.3963 25.4776 72.4489C25.3491 72.5014 25.1939 72.5277 25.0121 72.5277C24.8295 72.5277 24.6705 72.5004 24.5348 72.4457C24.3991 72.391 24.2937 72.3079 24.2184 72.1964C24.1431 72.0849 24.1044 71.9439 24.1023 71.7734H24.6072C24.6115 71.8438 24.6303 71.9023 24.6637 71.9492C24.6971 71.9961 24.7429 72.0316 24.8011 72.0558C24.8601 72.0799 24.9283 72.092 25.0057 72.092C25.0767 72.092 25.1371 72.0824 25.1868 72.0632C25.2372 72.044 25.2759 72.0174 25.3029 71.9833C25.3299 71.9492 25.3438 71.9102 25.3445 71.8661C25.3438 71.8249 25.331 71.7898 25.3061 71.7607C25.2813 71.7308 25.2429 71.7053 25.1911 71.6839C25.1399 71.6619 25.0746 71.6417 24.995 71.6232L24.767 71.57C24.5781 71.5266 24.4293 71.4567 24.3207 71.3601C24.212 71.2628 24.158 71.1314 24.1587 70.9659C24.158 70.831 24.1942 70.7127 24.2674 70.6112C24.3406 70.5096 24.4418 70.4304 24.571 70.3736C24.7003 70.3168 24.8477 70.2884 25.0131 70.2884C25.1822 70.2884 25.3288 70.3171 25.4531 70.3746C25.5781 70.4315 25.6751 70.5114 25.744 70.6143C25.8129 70.7173 25.848 70.8366 25.8494 70.9723H25.3445ZM27.4656 70.3182H27.9918V71.7255C27.9918 71.8881 27.9531 72.0298 27.8757 72.1506C27.7983 72.2706 27.6903 72.3636 27.5518 72.4297C27.4134 72.495 27.2525 72.5277 27.0692 72.5277C26.8839 72.5277 26.7219 72.495 26.5835 72.4297C26.445 72.3636 26.3374 72.2706 26.2607 72.1506C26.1839 72.0298 26.1456 71.8881 26.1456 71.7255V70.3182H26.6729V71.6797C26.6729 71.755 26.6893 71.8221 26.7219 71.881C26.7553 71.94 26.8018 71.9862 26.8615 72.0195C26.9212 72.0529 26.9904 72.0696 27.0692 72.0696C27.1481 72.0696 27.217 72.0529 27.2759 72.0195C27.3356 71.9862 27.3821 71.94 27.4155 71.881C27.4489 71.8221 27.4656 71.755 27.4656 71.6797V70.3182ZM28.3224 72.5V70.3182H29.2322C29.3955 70.3182 29.5322 70.3413 29.6423 70.3874C29.7531 70.4336 29.8362 70.4982 29.8916 70.5813C29.9477 70.6644 29.9758 70.7607 29.9758 70.87C29.9758 70.9531 29.9584 71.0273 29.9236 71.0927C29.8888 71.1573 29.8408 71.2109 29.7797 71.2536C29.7187 71.2962 29.648 71.326 29.5677 71.343V71.3643C29.6558 71.3686 29.7371 71.3924 29.8117 71.4357C29.887 71.479 29.9474 71.5394 29.9928 71.6168C30.0383 71.6935 30.061 71.7844 30.061 71.8896C30.061 72.0067 30.0312 72.1115 29.9715 72.2038C29.9118 72.2955 29.8256 72.3679 29.7126 72.4212C29.5997 72.4737 29.4626 72.5 29.3014 72.5H28.3224ZM28.8497 72.0749H29.1757C29.29 72.0749 29.3742 72.0533 29.4282 72.0099C29.4829 71.9666 29.5102 71.9062 29.5102 71.8288C29.5102 71.7727 29.4971 71.7244 29.4708 71.6839C29.4445 71.6428 29.4072 71.6112 29.3589 71.5891C29.3106 71.5664 29.2528 71.555 29.1853 71.555H28.8497V72.0749ZM28.8497 71.2152H29.1416C29.1991 71.2152 29.2503 71.2056 29.295 71.1864C29.3398 71.1673 29.3746 71.1396 29.3994 71.1033C29.425 71.0671 29.4378 71.0234 29.4378 70.9723C29.4378 70.8991 29.4118 70.8416 29.36 70.7997C29.3081 70.7578 29.2382 70.7369 29.1501 70.7369H28.8497V71.2152ZM30.3145 70.3182H30.9676L31.5216 71.669H31.5471L32.1011 70.3182H32.7542V72.5H32.2407V71.1598H32.2226L31.6984 72.4862H31.3703L30.8461 71.1523H30.828V72.5H30.3145V70.3182ZM33.6104 70.3182V72.5H33.0831V70.3182H33.6104ZM33.8701 70.7464V70.3182H35.7142V70.7464H35.0526V72.5H34.5328V70.7464H33.8701Z" fill="black"/>
<path d="M15 13C14.4747 13 13.9546 13.1035 13.4693 13.3045C12.984 13.5055 12.543 13.8001 12.1716 14.1716C11.8001 14.543 11.5055 14.984 11.3045 15.4693C11.1035 15.9546 11 16.4747 11 17C11 17.5253 11.1035 18.0454 11.3045 18.5307C11.5055 19.016 11.8001 19.457 12.1716 19.8284C12.543 20.1999 12.984 20.4945 13.4693 20.6955C13.9546 20.8965 14.4747 21 15 21L15 17L15 13Z" fill="black"/>
<path d="M23 21C23.5253 21 24.0454 20.8965 24.5307 20.6955C25.016 20.4945 25.457 20.1999 25.8284 19.8284C26.1999 19.457 26.4945 19.016 26.6955 18.5307C26.8965 18.0454 27 17.5253 27 17C27 16.4747 26.8965 15.9546 26.6955 15.4693C26.4945 14.984 26.1999 14.543 25.8284 14.1716C25.457 13.8001 25.016 13.5055 24.5307 13.3045C24.0454 13.1035 23.5253 13 23 13L23 17L23 21Z" fill="black"/>
</svg>
